<svg width="31" height="30" viewBox="0 0 31 30" fill="none" xmlns="http://www.w3.org/2000/svg">
<path d="M27.4513 21.8182H8.70297V2.72727H27.4513M27.4513 0H8.70297C7.99263 0 7.31139 0.287337 6.8091 0.7988C6.30682 1.31026 6.02463 2.00396 6.02463 2.72727V21.8182C6.02463 22.5415 6.30682 23.2352 6.8091 23.7467C7.31139 24.2581 7.99263 24.5455 8.70297 24.5455H27.4513C28.1616 24.5455 28.8429 24.2581 29.3452 23.7467C29.8475 23.2352 30.1296 22.5415 30.1296 21.8182V2.72727C30.1296 2.00396 29.8475 1.31026 29.3452 0.7988C28.8429 0.287337 28.1616 0 27.4513 0ZM3.3463 5.45455H0.667969V27.2727C0.667969 27.996 0.95015 28.6897 1.45243 29.2012C1.95472 29.7127 2.63596 30 3.3463 30H24.773V27.2727H3.3463V5.45455Z" fill="black"/>
</svg>
