<svg width="41" height="42" viewBox="0 0 41 42" fill="none" xmlns="http://www.w3.org/2000/svg">
<path d="M37.0475 19.8266L35.4369 21.0797C35.3112 21.1776 35.2879 21.3677 35.3857 21.4981L36.8251 23.4163L17.9735 38.0836L3.30502 18.5353L22.1596 3.86561L23.599 5.78382C23.6968 5.91419 23.8831 5.9413 24.0088 5.84347L25.6195 4.59033C25.7452 4.4925 25.7708 4.30545 25.6707 4.17198L23.3369 1.06187C22.941 0.534209 22.2118 0.428082 21.7028 0.824056L0.546033 17.2849C0.0370961 17.6809 -0.0539647 18.4252 0.341977 18.9529L16.7992 40.885C17.1951 41.4127 17.9243 41.5188 18.4333 41.1229L39.5871 24.6643C40.096 24.2683 40.1871 23.524 39.7911 22.9963L37.4574 19.8862C37.3573 19.7528 37.1733 19.7288 37.0475 19.8266ZM31.7421 11.5808L24.8854 11.4097C24.629 11.4028 24.4869 11.7001 24.643 11.908L26.4131 14.267L17.0127 21.5809C16.881 21.6834 16.8571 21.8789 16.9595 22.0155L18.2638 23.7537C18.3663 23.8903 18.5579 23.9182 18.6896 23.8157L28.09 16.5018L29.8601 18.8608C30.0161 19.0687 30.3382 19.005 30.396 18.7535L32.0356 11.9719C32.0468 11.9264 32.0477 11.8787 32.0382 11.8325C32.0287 11.7862 32.009 11.7426 31.9807 11.7049C31.9525 11.6672 31.9163 11.6364 31.8749 11.615C31.8336 11.5935 31.7882 11.5818 31.7421 11.5808Z" fill="black"/>
</svg>
