<svg width="30" height="30" viewBox="0 0 30 30" fill="none" xmlns="http://www.w3.org/2000/svg">
<path d="M15.1019 15.7895C14.6382 15.7895 14.2497 15.6379 13.9366 15.3347C13.6223 15.0326 13.4652 14.6579 13.4652 14.2105V1.57895C13.4652 1.13158 13.6223 0.756316 13.9366 0.453158C14.2497 0.151053 14.6382 0 15.1019 0C15.5657 0 15.9547 0.151053 16.2689 0.453158C16.5821 0.756316 16.7387 1.13158 16.7387 1.57895V14.2105C16.7387 14.6579 16.5821 15.0326 16.2689 15.3347C15.9547 15.6379 15.5657 15.7895 15.1019 15.7895ZM15.1019 30C13.056 30 11.1399 29.6253 9.35363 28.8758C7.56629 28.1253 6.01137 27.1116 4.68886 25.8347C3.36527 24.5589 2.31447 23.0589 1.53647 21.3347C0.759551 19.6116 0.371094 17.7632 0.371094 15.7895C0.371094 14.1316 0.65098 12.5463 1.21075 11.0337C1.76943 9.52 2.55344 8.15789 3.56277 6.94737C3.86285 6.57895 4.24476 6.40105 4.70851 6.41368C5.17225 6.42737 5.58144 6.60526 5.93608 6.94737C6.23615 7.23684 6.37254 7.5921 6.34526 8.01316C6.31799 8.43421 6.16795 8.82895 5.89516 9.19737C5.18589 10.1184 4.63376 11.1379 4.23876 12.2558C3.84266 13.3747 3.64461 14.5526 3.64461 15.7895C3.64461 18.8684 4.75652 21.48 6.98033 23.6242C9.20305 25.7695 11.9102 26.8421 15.1019 26.8421C18.2936 26.8421 21.0008 25.7695 23.2235 23.6242C25.4473 21.48 26.5592 18.8684 26.5592 15.7895C26.5592 14.5526 26.3617 13.3616 25.9667 12.2163C25.5706 11.0721 25.0043 10.0395 24.2678 9.11842C23.995 8.77631 23.8449 8.40105 23.8177 7.99263C23.7904 7.58526 23.9268 7.23684 24.2269 6.94737C24.5542 6.63158 24.9498 6.46684 25.4135 6.45316C25.8773 6.44053 26.2592 6.60526 26.5592 6.94737C27.5959 8.15789 28.4006 9.52 28.9735 11.0337C29.5463 12.5463 29.8328 14.1316 29.8328 15.7895C29.8328 17.7632 29.4443 19.6116 28.6674 21.3347C27.8894 23.0589 26.8391 24.5589 25.5166 25.8347C24.193 27.1116 22.6381 28.1253 20.8519 28.8758C19.0645 29.6253 17.1479 30 15.1019 30Z" fill="black"/>
</svg>
